<svg width="26" height="35" viewBox="0 0 26 35" fill="none" xmlns="http://www.w3.org/2000/svg">
<path d="M26 7.65625V31.7188C26 33.531 24.5449 35 22.75 35H3.25C1.45505 35 0 33.531 0 31.7188V7.65625C0 5.84404 1.45505 4.375 3.25 4.375H8.66667C8.66667 1.9626 10.6106 0 13 0C15.3894 0 17.3333 1.9626 17.3333 4.375H22.75C24.5449 4.375 26 5.84404 26 7.65625ZM13 2.73438C12.1025 2.73438 11.375 3.4689 11.375 4.375C11.375 5.2811 12.1025 6.01562 13 6.01562C13.8975 6.01562 14.625 5.2811 14.625 4.375C14.625 3.4689 13.8975 2.73438 13 2.73438ZM19.5 10.5273V9.16016C19.5 9.05138 19.4572 8.94705 19.381 8.87013C19.3048 8.79321 19.2015 8.75 19.0938 8.75H6.90625C6.79851 8.75 6.69517 8.79321 6.61899 8.87013C6.5428 8.94705 6.5 9.05138 6.5 9.16016V10.5273C6.5 10.6361 6.5428 10.7404 6.61899 10.8174C6.69517 10.8943 6.79851 10.9375 6.90625 10.9375H19.0938C19.2015 10.9375 19.3048 10.8943 19.381 10.8174C19.4572 10.7404 19.5 10.6361 19.5 10.5273Z" fill="#0B3D91"/>
</svg>
