<svg width="34" height="30" viewBox="0 0 34 30" fill="none" xmlns="http://www.w3.org/2000/svg">
<path d="M9.91664 12.3438V17.6562C9.91664 18.5365 9.20311 19.25 8.32289 19.25H1.59375C0.713535 19.25 0 18.5365 0 17.6562V12.3438C0 11.4635 0.713535 10.75 1.59375 10.75H8.32289C9.20311 10.75 9.91664 11.4635 9.91664 12.3438ZM0 22.9688V28.2812C0 29.1615 0.713535 29.875 1.59375 29.875H8.32289C9.20311 29.875 9.91664 29.1615 9.91664 28.2812V22.9688C9.91664 22.0885 9.20311 21.375 8.32289 21.375H1.59375C0.713535 21.375 0 22.0885 0 22.9688ZM8.32289 0.125H1.59375C0.713535 0.125 0 0.838535 0 1.71875V7.03125C0 7.91146 0.713535 8.625 1.59375 8.625H8.32289C9.20311 8.625 9.91664 7.91146 9.91664 7.03125V1.71875C9.91664 0.838535 9.20311 0.125 8.32289 0.125ZM13.6354 29.875H32.4062C33.2865 29.875 34 29.1615 34 28.2812V22.9688C34 22.0885 33.2865 21.375 32.4062 21.375H13.6354C12.7552 21.375 12.0416 22.0885 12.0416 22.9688V28.2812C12.0416 29.1615 12.7552 29.875 13.6354 29.875ZM12.0416 1.71875V7.03125C12.0416 7.91146 12.7552 8.625 13.6354 8.625H32.4062C33.2865 8.625 34 7.91146 34 7.03125V1.71875C34 0.838535 33.2865 0.125 32.4062 0.125H13.6354C12.7552 0.125 12.0416 0.838535 12.0416 1.71875ZM13.6354 19.25H32.4062C33.2865 19.25 34 18.5365 34 17.6562V12.3438C34 11.4635 33.2865 10.75 32.4062 10.75H13.6354C12.7552 10.75 12.0416 11.4635 12.0416 12.3438V17.6562C12.0416 18.5365 12.7552 19.25 13.6354 19.25Z" fill="#0B3D91"/>
</svg>
