<svg width="62" height="31" viewBox="0 0 62 31" fill="none" xmlns="http://www.w3.org/2000/svg">
<path d="M45 14.2143V17.7857C45 18.3775 44.4963 18.8571 43.875 18.8571H39.125C38.5037 18.8571 38 18.3775 38 17.7857V14.2143C38 13.6225 38.5037 13.1429 39.125 13.1429H43.875C44.4963 13.1429 45 13.6225 45 14.2143ZM38 21.3571V24.9286C38 25.5203 38.5037 26 39.125 26H43.875C44.4963 26 45 25.5203 45 24.9286V21.3571C45 20.7654 44.4963 20.2857 43.875 20.2857H39.125C38.5037 20.2857 38 20.7654 38 21.3571ZM43.875 6H39.125C38.5037 6 38 6.47969 38 7.07143V10.6429C38 11.2346 38.5037 11.7143 39.125 11.7143H43.875C44.4963 11.7143 45 11.2346 45 10.6429V7.07143C45 6.47969 44.4963 6 43.875 6ZM47.625 26H60.875C61.4963 26 62 25.5203 62 24.9286V21.3571C62 20.7654 61.4963 20.2857 60.875 20.2857H47.625C47.0037 20.2857 46.5 20.7654 46.5 21.3571V24.9286C46.5 25.5203 47.0037 26 47.625 26ZM46.5 7.07143V10.6429C46.5 11.2346 47.0037 11.7143 47.625 11.7143H60.875C61.4963 11.7143 62 11.2346 62 10.6429V7.07143C62 6.47969 61.4963 6 60.875 6H47.625C47.0037 6 46.5 6.47969 46.5 7.07143ZM47.625 18.8571H60.875C61.4963 18.8571 62 18.3775 62 17.7857V14.2143C62 13.6225 61.4963 13.1429 60.875 13.1429H47.625C47.0037 13.1429 46.5 13.6225 46.5 14.2143V17.7857C46.5 18.3775 47.0037 18.8571 47.625 18.8571Z" fill="#0B3D91"/>
<path d="M18 8.46875V25.6562C18 26.9507 16.9927 28 15.75 28H2.25C1.00734 28 0 26.9507 0 25.6562V8.46875C0 7.17432 1.00734 6.125 2.25 6.125H6C6 4.40186 7.34578 3 9 3C10.6542 3 12 4.40186 12 6.125H15.75C16.9927 6.125 18 7.17432 18 8.46875ZM9 4.95312C8.37867 4.95312 7.875 5.47778 7.875 6.125C7.875 6.77222 8.37867 7.29688 9 7.29688C9.62133 7.29688 10.125 6.77222 10.125 6.125C10.125 5.47778 9.62133 4.95312 9 4.95312ZM13.5 10.5195V9.54297C13.5 9.46527 13.4704 9.39075 13.4176 9.33581C13.3649 9.28087 13.2933 9.25 13.2188 9.25H4.78125C4.70666 9.25 4.63512 9.28087 4.58238 9.33581C4.52963 9.39075 4.5 9.46527 4.5 9.54297V10.5195C4.5 10.5972 4.52963 10.6717 4.58238 10.7267C4.63512 10.7816 4.70666 10.8125 4.78125 10.8125H13.2188C13.2933 10.8125 13.3649 10.7816 13.4176 10.7267C13.4704 10.6717 13.5 10.5972 13.5 10.5195Z" fill="#0B3D91"/>
<path fill-rule="evenodd" clip-rule="evenodd" d="M28 31L28 -5.01081e-08L29 0L29 31L28 31Z" fill="#0B3D91"/>
</svg>
